<?xml version="1.0" standalone="no"?><!DOCTYPE svg PUBLIC "-//W3C//DTD SVG 1.1//EN" "http://www.w3.org/Graphics/SVG/1.1/DTD/svg11.dtd"><svg t="1583894685206" class="icon" viewBox="0 0 1024 1024" version="1.1" xmlns="http://www.w3.org/2000/svg" p-id="8546" xmlns:xlink="http://www.w3.org/1999/xlink" width="200" height="200"><defs><style type="text/css"></style></defs><path d="M872.763829 137.023267C776.222346 48.66174 648.099032 0 512.00376 0S247.787174 48.66174 151.245691 137.023267C53.718213 226.284789 0.0065 345.248152 0.0065 471.997474c0 98.849471 32.323827 192.50497 93.739498 272.342543L2.922484 969.000814a39.999786 39.999786 0 0 0 53.219716 51.595724l257.310623-113.427393C376.334486 931.613014 443.046129 943.994948 512.00376 943.994948c86.313538 0 171.655081-20.171892 246.796679-58.335688 19.695895-10.003946 27.553853-34.079818 17.549906-53.777712-10.003946-19.695895-34.079818-27.551853-53.777712-17.549906C658.600975 846.821468 585.789365 863.995376 512.00376 863.995376c-64.105657 0-125.835327-12.467933-183.473018-37.057801a39.999786 39.999786 0 0 0-31.83183 0.189999l-182.689022 80.531569 62.731664-155.17717a39.997786 39.997786 0 0 0-6.641964-40.939781C111.159905 642.396562 80.006072 559.563005 80.006072 471.997474c0-216.148843 193.792963-391.997902 431.997688-391.997902s431.997688 175.849059 431.997688 391.997902c0 74.431602-23.095876 146.851214-66.795642 209.426879-12.647932 18.111903-8.219956 43.04777 9.893947 55.695702 18.107903 12.649932 43.04977 8.217956 55.695702-9.893947 53.125716-76.073593 81.205565-164.331121 81.205565-255.228634 0-126.749322-53.709713-245.712685-151.237191-334.974207z" p-id="8547"></path></svg>