<?xml version="1.0" standalone="no"?><!DOCTYPE svg PUBLIC "-//W3C//DTD SVG 1.1//EN" "http://www.w3.org/Graphics/SVG/1.1/DTD/svg11.dtd"><svg t="1583742752967" class="icon" viewBox="0 0 1024 1024" version="1.1" xmlns="http://www.w3.org/2000/svg" p-id="8744" xmlns:xlink="http://www.w3.org/1999/xlink" width="200" height="200"><defs><style type="text/css"></style></defs><path d="M302.711 410.843H141.38c-14.631 0-26.471-11.839-26.471-26.471 0-14.631 11.839-26.471 26.471-26.471h161.331c29.883 0 54.208-24.325 54.208-54.208V142.337c0-14.631 11.839-26.471 26.471-26.471 14.631 0 26.471 11.839 26.471 26.471v161.357c-0.001 59.094-48.056 107.149-107.15 107.149zM882.556 410.843H721.2c-59.094 0-107.149-48.056-107.149-107.149V142.337c0-14.631 11.839-26.471 26.471-26.471s26.471 11.839 26.471 26.471v161.357c0 29.883 24.325 54.208 54.208 54.208h161.357c14.631 0 26.471 11.839 26.471 26.471-0.002 14.631-11.841 26.47-26.473 26.47zM383.389 909.984c-14.631 0-26.471-11.839-26.471-26.471v-161.33c0-29.883-24.325-54.208-54.208-54.208H141.38c-14.631 0-26.471-11.839-26.471-26.471 0-14.631 11.839-26.471 26.471-26.471h161.331c59.094 0 107.149 48.055 107.149 107.149v161.331c0 14.632-11.839 26.471-26.471 26.471zM640.521 909.984c-14.631 0-26.471-11.839-26.471-26.471v-161.33c0-59.094 48.055-107.149 107.149-107.149h161.357c14.631 0 26.471 11.839 26.471 26.471 0 14.631-11.839 26.471-26.471 26.471H721.2c-29.883 0-54.208 24.325-54.208 54.208v161.331c0 14.63-11.84 26.469-26.471 26.469z" fill="#ffffff" p-id="8745"></path><path d="M664.252 387.113a26.387 26.387 0 0 1-18.716-7.755c-10.34-10.34-10.34-27.091 0-37.431L916.782 70.681c10.34-10.34 27.091-10.34 37.431 0 10.34 10.34 10.34 27.091 0 37.431L682.967 379.358a26.385 26.385 0 0 1-18.715 7.755zM88.439 962.925a26.387 26.387 0 0 1-18.716-7.755c-10.34-10.34-10.34-27.091 0-37.431l271.246-271.246c10.34-10.34 27.091-10.34 37.431 0 10.34 10.34 10.34 27.091 0 37.431L107.154 955.17a26.383 26.383 0 0 1-18.715 7.755zM359.659 387.113a26.385 26.385 0 0 1-18.716-7.755L69.723 108.112c-10.34-10.34-10.34-27.091 0-37.431s27.091-10.34 37.431 0l271.22 271.246c10.34 10.34 10.34 27.091 0 37.431a26.383 26.383 0 0 1-18.715 7.755zM935.498 962.925a26.387 26.387 0 0 1-18.716-7.755L645.51 683.924c-10.34-10.34-10.34-27.091 0-37.431 10.34-10.34 27.091-10.34 37.431 0l271.272 271.246c10.34 10.34 10.34 27.091 0 37.431a26.385 26.385 0 0 1-18.715 7.755z" fill="#ffffff" p-id="8746"></path></svg>